<svg
	xmlns="http://www.w3.org/2000/svg" class="graphdiagram" viewBox="-2100.694881439209 -500.5406735688448 2755 800">
	<g class="layer relationships">
		<g class="related-pair">
			<g class="relationship" transform="translate(-1473.759033203125,170) rotate(-20.026546668675984)">
				<path class="relationship" d="M 95.80086588360982 4 L 643.1045291133784 4 L 643.1045291133784 16 L 675.1045291133784 0 L 643.1045291133784 -16 L 643.1045291133784 -4 L 95.80086588360982 -4 Z" fill="rgb(0, 0, 0)" stroke="rgb(51, 51, 51)" stroke-width="0px"/>
				<text class="type" text-anchor="middle" baseline-shift="30%" alignment-baseline="alphabetic" x="369.4526974984941" y="0" font-size="50px" font-family="&quot;Gill Sans&quot;, &quot;Gill Sans MT&quot;, Calibri, sans-serif">PRODUCES</text>
			</g>
		</g>
		<g class="related-pair">
			<g class="relationship" transform="translate(-1473.759033203125,-359.94740295410156) rotate(20.16230397386674)">
				<path class="relationship" d="M 95.80086588360982 4 L 643.7730555774924 4 L 643.7730555774924 16 L 675.7730555774924 0 L 643.7730555774924 -16 L 643.7730555774924 -4 L 95.80086588360982 -4 Z" fill="rgb(0, 0, 0)" stroke="rgb(51, 51, 51)" stroke-width="0px"/>
				<text class="type" text-anchor="middle" baseline-shift="30%" alignment-baseline="alphabetic" x="369.7869607305511" y="0" font-size="50px" font-family="&quot;Gill Sans&quot;, &quot;Gill Sans MT&quot;, Calibri, sans-serif">PRODUCES</text>
			</g>
		</g>
		<g class="related-pair">
			<g class="relationship" transform="translate(-749.4671630859375,-94.00078582763672) rotate(-19.545070724335112)">
				<path class="relationship" d="M 95.80086588360982 4 L 667.141575282273 4 L 667.141575282273 16 L 699.141575282273 0 L 667.141575282273 -16 L 667.141575282273 -4 L 95.80086588360982 -4 Z" fill="rgb(0, 0, 0)" stroke="rgb(51, 51, 51)" stroke-width="0px"/>
				<text class="type" text-anchor="middle" baseline-shift="30%" alignment-baseline="alphabetic" x="381.47122058294144" y="0" font-size="50px" font-family="&quot;Gill Sans&quot;, &quot;Gill Sans MT&quot;, Calibri, sans-serif">PRODUCES</text>
			</g>
		</g>
		<g class="related-pair">
			<g class="relationship" transform="translate(-749.4671630859375,-94.00078582763672) rotate(19.41279730767705)">
				<path class="relationship" d="M 95.80086588360982 4 L 666.4927174490093 4 L 666.4927174490093 16 L 698.4927174490093 0 L 666.4927174490093 -16 L 666.4927174490093 -4 L 95.80086588360982 -4 Z" fill="rgb(0, 0, 0)" stroke="rgb(51, 51, 51)" stroke-width="0px"/>
				<text class="type" text-anchor="middle" baseline-shift="30%" alignment-baseline="alphabetic" x="381.1467916663096" y="0" font-size="50px" font-family="&quot;Gill Sans&quot;, &quot;Gill Sans MT&quot;, Calibri, sans-serif">PRODUCES</text>
			</g>
		</g>
		<g class="related-pair">
			<g class="relationship" transform="translate(-749.4671630859375,-94.00078582763672) rotate(0)">
				<path class="relationship" d="M 95.80086588360982 4 L 621.3358917286185 4 L 621.3358917286185 16 L 653.3358917286185 0 L 621.3358917286185 -16 L 621.3358917286185 -4 L 95.80086588360982 -4 Z" fill="rgb(0, 0, 0)" stroke="rgb(51, 51, 51)" stroke-width="0px"/>
				<text class="type" text-anchor="middle" baseline-shift="30%" alignment-baseline="alphabetic" x="358.5683788061142" y="0" font-size="50px" font-family="&quot;Gill Sans&quot;, &quot;Gill Sans MT&quot;, Calibri, sans-serif">PRODUCES</text>
			</g>
		</g>
	</g>
	<g class="layer nodes">
		<circle class="node node-id-0" r="80.80086588360982" fill="rgb(255, 255, 255)" stroke="rgb(0, 0, 0)" stroke-width="8px" cx="-1473.759033203125" cy="170"/>
		<circle class="node node-id-1" r="80.80086588360982" fill="rgb(255, 255, 255)" stroke="rgb(0, 0, 0)" stroke-width="8px" cx="-1473.759033203125" cy="-359.94740295410156"/>
		<circle class="node node-id-2" r="80.80086588360982" fill="rgb(255, 255, 255)" stroke="rgb(0, 0, 0)" stroke-width="8px" cx="-749.4671630859375" cy="-94.00078582763672"/>
		<circle class="node node-id-3" r="80.80086588360982" fill="rgb(255, 255, 255)" stroke="rgb(0, 0, 0)" stroke-width="8px" cx="-0.33040547370910645" cy="-359.94740295410156"/>
		<circle class="node node-id-4" r="80.80086588360982" fill="rgb(255, 255, 255)" stroke="rgb(0, 0, 0)" stroke-width="8px" cx="-0.33040547370910645" cy="-94.00078582763672"/>
		<circle class="node node-id-5" r="80.80086588360982" fill="rgb(255, 255, 255)" stroke="rgb(0, 0, 0)" stroke-width="8px" cx="-0.33040547370910645" cy="170"/>
		<g class="caption">
			<text class="caption node" text-anchor="middle" alignment-baseline="central" x="-1473.759033203125" y="170" fill="rgb(51, 51, 51)" font-size="50px" font-family="&quot;Gill Sans&quot;, &quot;Gill Sans MT&quot;, Calibri, sans-serif">Batch</text>
		</g>
		<g class="caption">
			<text class="caption node" text-anchor="middle" alignment-baseline="central" x="-1473.759033203125" y="-359.94740295410156" fill="rgb(51, 51, 51)" font-size="50px" font-family="&quot;Gill Sans&quot;, &quot;Gill Sans MT&quot;, Calibri, sans-serif">Batch</text>
		</g>
		<g class="caption">
			<text class="caption node" text-anchor="middle" alignment-baseline="central" x="-749.4671630859375" y="-94.00078582763672" fill="rgb(51, 51, 51)" font-size="50px" font-family="&quot;Gill Sans&quot;, &quot;Gill Sans MT&quot;, Calibri, sans-serif">Batch</text>
		</g>
		<g class="caption">
			<text class="caption node" text-anchor="middle" alignment-baseline="central" x="-0.33040547370910645" y="-359.94740295410156" fill="rgb(51, 51, 51)" font-size="50px" font-family="&quot;Gill Sans&quot;, &quot;Gill Sans MT&quot;, Calibri, sans-serif">Batch</text>
		</g>
		<g class="caption">
			<text class="caption node" text-anchor="middle" alignment-baseline="central" x="-0.33040547370910645" y="-94.00078582763672" fill="rgb(51, 51, 51)" font-size="50px" font-family="&quot;Gill Sans&quot;, &quot;Gill Sans MT&quot;, Calibri, sans-serif">Batch</text>
		</g>
		<g class="caption">
			<text class="caption node" text-anchor="middle" alignment-baseline="central" x="-0.33040547370910645" y="170" fill="rgb(51, 51, 51)" font-size="50px" font-family="&quot;Gill Sans&quot;, &quot;Gill Sans MT&quot;, Calibri, sans-serif">Batch</text>
		</g>
	</g>
	<g class="layer properties">
		<g class="speech-bubble node-speech-bubble" transform="translate(-1554.5598990867347,170) ">
			<path class="speech-bubble-outline" transform="scale(-1,1) " d="M 0 0 L 20 -10 L 20 -25 A 10 10 0 0 1 30 -35 L 452.1435546875 -35 A 10 10 0 0 1 462.1435546875 -25 L 462.1435546875 25 A 10 10 0 0 1 452.1435546875 35 L 30 35 A 10 10 0 0 1 20 25 L 20 10 Z" fill="rgb(255, 255, 255)" stroke="rgb(0, 0, 0)" stroke-width="3px"/>
			<text class="speech-bubble-content property-key" x="-196.69921875" y="0" alignment-baseline="central" text-anchor="end" font-size="50px" font-family="&quot;Gill Sans&quot;, &quot;Gill Sans MT&quot;, Calibri, sans-serif" xml:space="preserve">SAP_OG #: </text>
			<text class="speech-bubble-content property-value" x="-196.69921875" y="0" alignment-baseline="central" font-size="50px" font-family="&quot;Gill Sans&quot;, &quot;Gill Sans MT&quot;, Calibri, sans-serif">A239BV</text>
		</g>
		<g class="speech-bubble node-speech-bubble" transform="translate(-1554.5598990867347,-359.94740295410156) ">
			<path class="speech-bubble-outline" transform="scale(-1,1) " d="M 0 0 L 20 -10 L 20 -50 A 10 10 0 0 1 30 -60 L 485.4443359375 -60 A 10 10 0 0 1 495.4443359375 -50 L 495.4443359375 50 A 10 10 0 0 1 485.4443359375 60 L 30 60 A 10 10 0 0 1 20 50 L 20 10 Z" fill="rgb(255, 255, 255)" stroke="rgb(0, 0, 0)" stroke-width="3px"/>
			<text class="speech-bubble-content property-key" x="-230" y="-25" alignment-baseline="central" text-anchor="end" font-size="50px" font-family="&quot;Gill Sans&quot;, &quot;Gill Sans MT&quot;, Calibri, sans-serif" xml:space="preserve">SAP_OG #: </text>
			<text class="speech-bubble-content property-key" x="-230" y="25" alignment-baseline="central" text-anchor="end" font-size="50px" font-family="&quot;Gill Sans&quot;, &quot;Gill Sans MT&quot;, Calibri, sans-serif" xml:space="preserve">Vendor #: </text>
			<text class="speech-bubble-content property-value" x="-230" y="-25" alignment-baseline="central" font-size="50px" font-family="&quot;Gill Sans&quot;, &quot;Gill Sans MT&quot;, Calibri, sans-serif">39CK33</text>
			<text class="speech-bubble-content property-value" x="-230" y="25" alignment-baseline="central" font-size="50px" font-family="&quot;Gill Sans&quot;, &quot;Gill Sans MT&quot;, Calibri, sans-serif">49408949</text>
		</g>
		<g class="speech-bubble node-speech-bubble" transform="translate(-749.4671630859375,-13.199919944026902) ">
			<path class="speech-bubble-outline" transform="scale(1,1) " d="M 0 0 L -10 20 L -252.72216796875 20 A 10 10 0 0 0 -262.72216796875 30 L -262.72216796875 180 A 10 10 0 0 0 -252.72216796875 190 L 252.72216796875 190 A 10 10 0 0 0 262.72216796875 180 L 262.72216796875 30 A 10 10 0 0 0 252.72216796875 20 L 10 20 Z" fill="rgb(255, 255, 255)" stroke="rgb(0, 0, 0)" stroke-width="3px"/>
			<text class="speech-bubble-content property-key" x="2.72216796875" y="55" alignment-baseline="central" text-anchor="end" font-size="50px" font-family="&quot;Gill Sans&quot;, &quot;Gill Sans MT&quot;, Calibri, sans-serif" xml:space="preserve">SAP_OG #: </text>
			<text class="speech-bubble-content property-key" x="2.72216796875" y="105" alignment-baseline="central" text-anchor="end" font-size="50px" font-family="&quot;Gill Sans&quot;, &quot;Gill Sans MT&quot;, Calibri, sans-serif" xml:space="preserve">SAP_R2 #: </text>
			<text class="speech-bubble-content property-key" x="2.72216796875" y="155" alignment-baseline="central" text-anchor="end" font-size="50px" font-family="&quot;Gill Sans&quot;, &quot;Gill Sans MT&quot;, Calibri, sans-serif" xml:space="preserve">Vendor #: </text>
			<text class="speech-bubble-content property-value" x="2.72216796875" y="55" alignment-baseline="central" font-size="50px" font-family="&quot;Gill Sans&quot;, &quot;Gill Sans MT&quot;, Calibri, sans-serif">9C220Y</text>
			<text class="speech-bubble-content property-value" x="2.72216796875" y="105" alignment-baseline="central" font-size="50px" font-family="&quot;Gill Sans&quot;, &quot;Gill Sans MT&quot;, Calibri, sans-serif">0003492493</text>
			<text class="speech-bubble-content property-value" x="2.72216796875" y="155" alignment-baseline="central" font-size="50px" font-family="&quot;Gill Sans&quot;, &quot;Gill Sans MT&quot;, Calibri, sans-serif">9C220Y</text>
		</g>
		<g class="speech-bubble node-speech-bubble" transform="translate(80.47046040990071,-359.94740295410156) ">
			<path class="speech-bubble-outline" transform="scale(1,1) " d="M 0 0 L 20 -10 L 20 -25 A 10 10 0 0 1 30 -35 L 512.470703125 -35 A 10 10 0 0 1 522.470703125 -25 L 522.470703125 25 A 10 10 0 0 1 512.470703125 35 L 30 35 A 10 10 0 0 1 20 25 L 20 10 Z" fill="rgb(255, 255, 255)" stroke="rgb(0, 0, 0)" stroke-width="3px"/>
			<text class="speech-bubble-content property-key" x="262.470703125" y="0" alignment-baseline="central" text-anchor="end" font-size="50px" font-family="&quot;Gill Sans&quot;, &quot;Gill Sans MT&quot;, Calibri, sans-serif" xml:space="preserve">SAP_R2 #: </text>
			<text class="speech-bubble-content property-value" x="262.470703125" y="0" alignment-baseline="central" font-size="50px" font-family="&quot;Gill Sans&quot;, &quot;Gill Sans MT&quot;, Calibri, sans-serif">0006438451</text>
		</g>
		<g class="speech-bubble node-speech-bubble" transform="translate(80.47046040990071,-94.00078582763672) ">
			<path class="speech-bubble-outline" transform="scale(1,1) " d="M 0 0 L 20 -10 L 20 -25 A 10 10 0 0 1 30 -35 L 512.470703125 -35 A 10 10 0 0 1 522.470703125 -25 L 522.470703125 25 A 10 10 0 0 1 512.470703125 35 L 30 35 A 10 10 0 0 1 20 25 L 20 10 Z" fill="rgb(255, 255, 255)" stroke="rgb(0, 0, 0)" stroke-width="3px"/>
			<text class="speech-bubble-content property-key" x="262.470703125" y="0" alignment-baseline="central" text-anchor="end" font-size="50px" font-family="&quot;Gill Sans&quot;, &quot;Gill Sans MT&quot;, Calibri, sans-serif" xml:space="preserve">SAP_R2 #: </text>
			<text class="speech-bubble-content property-value" x="262.470703125" y="0" alignment-baseline="central" font-size="50px" font-family="&quot;Gill Sans&quot;, &quot;Gill Sans MT&quot;, Calibri, sans-serif">0006438452</text>
		</g>
		<g class="speech-bubble node-speech-bubble" transform="translate(80.47046040990071,170) ">
			<path class="speech-bubble-outline" transform="scale(1,1) " d="M 0 0 L 20 -10 L 20 -25 A 10 10 0 0 1 30 -35 L 512.470703125 -35 A 10 10 0 0 1 522.470703125 -25 L 522.470703125 25 A 10 10 0 0 1 512.470703125 35 L 30 35 A 10 10 0 0 1 20 25 L 20 10 Z" fill="rgb(255, 255, 255)" stroke="rgb(0, 0, 0)" stroke-width="3px"/>
			<text class="speech-bubble-content property-key" x="262.470703125" y="0" alignment-baseline="central" text-anchor="end" font-size="50px" font-family="&quot;Gill Sans&quot;, &quot;Gill Sans MT&quot;, Calibri, sans-serif" xml:space="preserve">SAP_R2 #: </text>
			<text class="speech-bubble-content property-value" x="262.470703125" y="0" alignment-baseline="central" font-size="50px" font-family="&quot;Gill Sans&quot;, &quot;Gill Sans MT&quot;, Calibri, sans-serif">0006438454</text>
		</g>
	</g>
	<g class="layer overlay">
		<circle class="node overlay" r="84.80086588360982" stroke="none" fill="rgba(255, 255, 255, 0)" cx="-1473.759033203125" cy="170"/>
		<circle class="node overlay" r="84.80086588360982" stroke="none" fill="rgba(255, 255, 255, 0)" cx="-1473.759033203125" cy="-359.94740295410156"/>
		<circle class="node overlay" r="84.80086588360982" stroke="none" fill="rgba(255, 255, 255, 0)" cx="-749.4671630859375" cy="-94.00078582763672"/>
		<circle class="node overlay" r="84.80086588360982" stroke="none" fill="rgba(255, 255, 255, 0)" cx="-0.33040547370910645" cy="-359.94740295410156"/>
		<circle class="node overlay" r="84.80086588360982" stroke="none" fill="rgba(255, 255, 255, 0)" cx="-0.33040547370910645" cy="-94.00078582763672"/>
		<circle class="node overlay" r="84.80086588360982" stroke="none" fill="rgba(255, 255, 255, 0)" cx="-0.33040547370910645" cy="170"/>
		<circle class="node ring" r="89.80086588360982" fill="none" stroke="rgba(255, 255, 255, 0)" stroke-width="10px" cx="-1473.759033203125" cy="170"/>
		<circle class="node ring" r="89.80086588360982" fill="none" stroke="rgba(255, 255, 255, 0)" stroke-width="10px" cx="-1473.759033203125" cy="-359.94740295410156"/>
		<circle class="node ring" r="89.80086588360982" fill="none" stroke="rgba(255, 255, 255, 0)" stroke-width="10px" cx="-749.4671630859375" cy="-94.00078582763672"/>
		<circle class="node ring" r="89.80086588360982" fill="none" stroke="rgba(255, 255, 255, 0)" stroke-width="10px" cx="-0.33040547370910645" cy="-359.94740295410156"/>
		<circle class="node ring" r="89.80086588360982" fill="none" stroke="rgba(255, 255, 255, 0)" stroke-width="10px" cx="-0.33040547370910645" cy="-94.00078582763672"/>
		<circle class="node ring" r="89.80086588360982" fill="none" stroke="rgba(255, 255, 255, 0)" stroke-width="10px" cx="-0.33040547370910645" cy="170"/>
		<path class="relationship overlay" fill="rgba(255, 255, 255, 0)" stroke="rgba(255, 255, 255, 0)" stroke-width="10px" transform="translate(-1473.759033203125,170) rotate(-20.026546668675984)" d="M 95.80086588360982 4 L 643.1045291133784 4 L 643.1045291133784 16 L 675.1045291133784 0 L 643.1045291133784 -16 L 643.1045291133784 -4 L 95.80086588360982 -4 Z"/>
		<path class="relationship overlay" fill="rgba(255, 255, 255, 0)" stroke="rgba(255, 255, 255, 0)" stroke-width="10px" transform="translate(-1473.759033203125,-359.94740295410156) rotate(20.16230397386674)" d="M 95.80086588360982 4 L 643.7730555774924 4 L 643.7730555774924 16 L 675.7730555774924 0 L 643.7730555774924 -16 L 643.7730555774924 -4 L 95.80086588360982 -4 Z"/>
		<path class="relationship overlay" fill="rgba(255, 255, 255, 0)" stroke="rgba(255, 255, 255, 0)" stroke-width="10px" transform="translate(-749.4671630859375,-94.00078582763672) rotate(-19.545070724335112)" d="M 95.80086588360982 4 L 667.141575282273 4 L 667.141575282273 16 L 699.141575282273 0 L 667.141575282273 -16 L 667.141575282273 -4 L 95.80086588360982 -4 Z"/>
		<path class="relationship overlay" fill="rgba(255, 255, 255, 0)" stroke="rgba(255, 255, 255, 0)" stroke-width="10px" transform="translate(-749.4671630859375,-94.00078582763672) rotate(19.41279730767705)" d="M 95.80086588360982 4 L 666.4927174490093 4 L 666.4927174490093 16 L 698.4927174490093 0 L 666.4927174490093 -16 L 666.4927174490093 -4 L 95.80086588360982 -4 Z"/>
		<path class="relationship overlay" fill="rgba(255, 255, 255, 0)" stroke="rgba(255, 255, 255, 0)" stroke-width="10px" transform="translate(-749.4671630859375,-94.00078582763672) rotate(0)" d="M 95.80086588360982 4 L 621.3358917286185 4 L 621.3358917286185 16 L 653.3358917286185 0 L 621.3358917286185 -16 L 621.3358917286185 -4 L 95.80086588360982 -4 Z"/>
	</g>
</svg>